<svg preserveAspectRatio="none" overflow="visible" style="display: block;" width="16" height="16" viewBox="0 0 16 16" fill="none" xmlns="http://www.w3.org/2000/svg">
<g id="Icon &#226;&#128;&#148; Globe">
<circle id="Outer" cx="8" cy="8" r="7.4" stroke="#FF5A1F" stroke-width="1.2"/>
<line id="Equator" y1="7.4" x2="16" y2="7.4" stroke="#FF5A1F" stroke-width="1.2"/>
<path id="Meridian" d="M8 0.599609C8.28466 0.599609 8.60336 0.729068 8.94531 1.05957C9.29024 1.39304 9.62791 1.90537 9.9248 2.58398C10.5178 3.93943 10.9004 5.85368 10.9004 8C10.9004 10.1463 10.5178 12.0606 9.9248 13.416C9.62791 14.0946 9.29024 14.607 8.94531 14.9404C8.60336 15.2709 8.28466 15.4004 8 15.4004C7.71534 15.4004 7.39664 15.2709 7.05469 14.9404C6.70976 14.607 6.37209 14.0946 6.0752 13.416C5.48222 12.0606 5.09961 10.1463 5.09961 8C5.09961 5.85368 5.48222 3.93943 6.0752 2.58398C6.37209 1.90537 6.70976 1.39304 7.05469 1.05957C7.39664 0.729068 7.71534 0.599609 8 0.599609Z" stroke="#FF5A1F" stroke-width="1.2"/>
</g>
</svg>
